<?xml version="1.0" encoding="utf-8"?>
<!-- Generator: Adobe Illustrator 24.0.2, SVG Export Plug-In . SVG Version: 6.00 Build 0)  -->
<svg version="1.1" xmlns="http://www.w3.org/2000/svg" xmlns:xlink="http://www.w3.org/1999/xlink" x="0px" y="0px"
	 viewBox="0 0 24 24" style="enable-background:new 0 0 24 24;" xml:space="preserve">
<style type="text/css">
	.st0{fill:none;}
	.st1{fill:#121331;}
</style>
<g id="bounding_box">
	<rect x="0" y="0" class="st0" width="24" height="24"/>
</g>
<g id="design">
	<path class="st1" d="M13,9.75c-0.41,0-0.75-0.34-0.75-0.75V2H5.97C4.88,2,4,2.89,4,3.97v16.06C4,21.11,4.88,22,5.97,22h12.06
		c1.09,0,1.97-0.89,1.97-1.97V9.75H13z M15,18H9c-0.55,0-1-0.45-1-1s0.45-1,1-1h6c0.55,0,1,0.45,1,1S15.55,18,15,18z M15,14H9
		c-0.55,0-1-0.45-1-1c0-0.55,0.45-1,1-1h6c0.55,0,1,0.45,1,1C16,13.55,15.55,14,15,14z"/>
	<polygon class="st1" points="20,8.24 13.76,8.24 13.76,2 	"/>
</g>
</svg>
