<?xml version="1.0" encoding="utf-8"?>
<!-- Generator: Adobe Illustrator 24.0.2, SVG Export Plug-In . SVG Version: 6.00 Build 0)  -->
<svg version="1.1" xmlns="http://www.w3.org/2000/svg" xmlns:xlink="http://www.w3.org/1999/xlink" x="0px" y="0px"
	 viewBox="0 0 24 24" style="enable-background:new 0 0 24 24;" xml:space="preserve">
<style type="text/css">
	.st0{fill:none;}
	.st1{display:none;}
	.st2{display:inline;}
	.st3{fill:none;stroke:#CECECE;stroke-width:0.1;stroke-miterlimit:10;}
	.st4{fill:#121331;}
</style>
<g id="bounding_box">
	<rect x="0" y="0" class="st0" width="24" height="24"/>
</g>
<g id="design">
	<path class="st4" d="M19.78,8.72l-6.5-6.5C13.14,2.09,12.96,2,12.76,2H5.75C4.79,2,4,2.79,4,3.75v16.5C4,21.21,4.79,22,5.75,22
		h12.5c0.96,0,1.75-0.79,1.75-1.75V9.24C20,9.04,19.91,8.86,19.78,8.72z M13.5,4.56l3.94,3.94H13.5V4.56z M18.5,20.25
		c0,0.14-0.11,0.25-0.25,0.25H5.75c-0.14,0-0.25-0.11-0.25-0.25V3.75c0-0.14,0.11-0.25,0.25-0.25H12v5.75C12,9.66,12.34,10,12.75,10
		h5.75V20.25z"/>
	<path class="st4" d="M19.78,8.72C19.91,8.86,20,9.04,20,9.24C20,9.05,19.93,8.86,19.78,8.72z M13.28,2.22
		C13.14,2.07,12.95,2,12.76,2C12.96,2,13.14,2.09,13.28,2.22z"/>
	<path class="st4" d="M15.03,15.78C14.88,15.93,14.69,16,14.5,16s-0.38-0.07-0.53-0.22l-1.22-1.22v3.69c0,0.41-0.34,0.75-0.75,0.75
		s-0.75-0.34-0.75-0.75v-3.69l-1.22,1.22c-0.29,0.29-0.77,0.29-1.06,0c-0.29-0.29-0.29-0.77,0-1.06l2.5-2.5
		c0.29-0.29,0.77-0.29,1.06,0l2.5,2.5C15.32,15.01,15.32,15.49,15.03,15.78z"/>
</g>
</svg>
