<?xml version="1.0" encoding="utf-8"?>
<!-- Generator: Adobe Illustrator 24.0.2, SVG Export Plug-In . SVG Version: 6.00 Build 0)  -->
<svg version="1.1" xmlns="http://www.w3.org/2000/svg" xmlns:xlink="http://www.w3.org/1999/xlink" x="0px" y="0px"
	 viewBox="0 0 24 24" style="enable-background:new 0 0 24 24;" xml:space="preserve">
<style type="text/css">
	.st0{fill:none;}
	.st1{fill:#121331;}
</style>
<g id="bounding_box">
	<rect x="0" y="0" class="st0" width="24" height="24"/>
</g>
<g id="design">
	<path class="st1" d="M13,9.75c-0.41,0-0.75-0.34-0.75-0.75V2H5.97C4.88,2,4,2.89,4,3.97v16.06C4,21.11,4.88,22,5.97,22h12.06
		c1.09,0,1.97-0.89,1.97-1.97V9.75H13z M15.21,16.16c-0.2,0.19-0.45,0.29-0.71,0.29s-0.51-0.1-0.71-0.29L13,15.37v2.65
		c0,0.56-0.45,1-1,1s-1-0.44-1-1v-2.65l-0.79,0.79c-0.39,0.39-1.03,0.39-1.42,0c-0.39-0.39-0.39-1.02,0-1.41l2.5-2.5
		c0.39-0.4,1.03-0.4,1.42,0l2.5,2.5C15.6,15.14,15.6,15.77,15.21,16.16z"/>
	<polygon class="st1" points="20,8.24 13.76,8.24 13.76,2 	"/>
</g>
</svg>
