<?xml version="1.0" encoding="utf-8"?>
<!-- Generator: Adobe Illustrator 24.0.2, SVG Export Plug-In . SVG Version: 6.00 Build 0)  -->
<svg version="1.1" xmlns="http://www.w3.org/2000/svg" xmlns:xlink="http://www.w3.org/1999/xlink" x="0px" y="0px"
	 viewBox="0 0 24 24" style="enable-background:new 0 0 24 24;" xml:space="preserve">
<style type="text/css">
	.st0{fill:none;}
	.st1{fill:#121331;}
</style>
<g id="bounding_box">
	<rect class="st0" width="24" height="24"/>
</g>
<g id="design">
	<g>
		<path class="st1" d="M20.02,17.85c0,1.79-1.46,3.25-3.25,3.25c-1.79,0-3.25-1.46-3.25-3.25c0-0.32,0.05-0.63,0.14-0.92l-5.21-2.59
			c-0.59,0.56-1.39,0.91-2.26,0.91c-1.79,0-3.25-1.46-3.25-3.25S4.4,8.75,6.19,8.75c0.87,0,1.67,0.35,2.26,0.92l5.19-2.62
			c-0.08-0.26-0.12-0.54-0.12-0.82c0-1.8,1.46-3.25,3.25-3.25c1.8,0,3.25,1.45,3.25,3.25c0,1.79-1.45,3.25-3.25,3.25
			c-0.77,0-1.5-0.27-2.06-0.73l-5.32,2.69c0.03,0.18,0.05,0.37,0.05,0.56s-0.02,0.38-0.06,0.57l5.43,2.69
			c0.55-0.42,1.23-0.66,1.96-0.66C18.56,14.6,20.02,16.06,20.02,17.85z"/>
	</g>
</g>
</svg>
